# xmcd
#
# Track frame offsets: 
#        150
#        23800
#        56250
#        89085
#        104875
#        122007
#        158909
#        190480
#        221482
#        262969
#
# Disc length: 4009 seconds
#
# Revision: 2
# Processed by: cddbd v1.5.2PL0 Copyright (c) Steve Scherf et al.
# Submitted via: ExactAudioCopy v1.0b3
#
DISCID=8e0fa70a
DTITLE=Various Artist - Sector Beat Vol. 8 CD1
DYEAR=2009
DGENRE=Electronic
TTITLE0=David Guetta Feat. Akon - Sexy Bitch (Extended Mix)
TTITLE1=Tiësto and Sneaky Sound System - I Will Be Here (Tiësto Remix)
TTITLE2=Dash Berlin Feat. Emma Hewitt - Waiting
TTITLE3=Paul Oakenfold Feat. Sussie Del Vecchio - Mesmerized
TTITLE4=Kaskade - Angel On My Shoulder
TTITLE5=Sharam feat. Anousheh Khalili - Don't Say A Word
TTITLE6=Arnej - Tomorrow Never Comes (Original Mix)
TTITLE7=Armin van Buuren feat. Jacqueline Govaert - Never Say Never (A
TTITLE7=lex Gaudino Remix)
TTITLE8=Nadia Ali - Love Story (Sultan and Ned Shepard Remix)
TTITLE9=Roger Shah and Tenishia Feat. Lorilee - I'm Not God (Roger Shah 
TTITLE9=Mix)
EXTD=1
EXTT0=
EXTT1=
EXTT2=
EXTT3=
EXTT4=
EXTT5=
EXTT6=
EXTT7=
EXTT8=
EXTT9=
PLAYORDER=
